# xmcd
#
# Track frame offsets: 
#        150
#        17328
#        33893
#        53523
#        68079
#        82607
#        98283
#        116669
#        132976
#        145654
#        159523
#        176732
#        194464
#        211653
#        230746
#        245778
#
# Disc length: 3506 seconds
#
# Revision: 0
# Processed by: cddbd v1.5.2PL0 Copyright (c) Steve Scherf et al.
# Submitted via: ExactAudioCopyFreeDBPlugin 1.0
#
DISCID=c50db010
DTITLE=Calcinha Preta - Já Tentei Esquecer Esse Amor
DYEAR=2013
DGENRE=Soundtrack
TTITLE0=Já Tentei Esquecer Esse Amor
TTITLE1=Tudo Ou Nada
TTITLE2=Filho Sem Sorte
TTITLE3=Dói Dói
TTITLE4=Ficando Com Kátia
TTITLE5=Olhar Que Envenena
TTITLE6=Princesa
TTITLE7=A Desconhecida
TTITLE8=Loucuras De Amor
TTITLE9=Rainha Do Vaqueiro
TTITLE10=Vida Real
TTITLE11=Amanhecer
TTITLE12=Faço Chover
TTITLE13=Tem Mais Alguém
TTITLE14=Vou Pra Califórnia
TTITLE15=Sim Ou Não
EXTD=
EXTT0=
EXTT1=
EXTT2=
EXTT3=
EXTT4=
EXTT5=
EXTT6=
EXTT7=
EXTT8=
EXTT9=
EXTT10=
EXTT11=
EXTT12=
EXTT13=
EXTT14=
EXTT15=
PLAYORDER=
